<?xml version="1.0" encoding="UTF-8" standalone="no"?>
<!-- Created with Inkscape (http://www.inkscape.org/) -->
<svg
   xmlns:dc="http://purl.org/dc/elements/1.1/"
   xmlns:cc="http://creativecommons.org/ns#"
   xmlns:rdf="http://www.w3.org/1999/02/22-rdf-syntax-ns#"
   xmlns:svg="http://www.w3.org/2000/svg"
   xmlns="http://www.w3.org/2000/svg"
   xmlns:sodipodi="http://sodipodi.sourceforge.net/DTD/sodipodi-0.dtd"
   xmlns:inkscape="http://www.inkscape.org/namespaces/inkscape"
   id="svg2457"
   sodipodi:version="0.32"
   inkscape:version="0.46"
   width="1980"
   height="168"
   version="1.0"
   sodipodi:docname="Postech Logo.svg"
   inkscape:output_extension="org.inkscape.output.svg.inkscape">
  <metadata
     id="metadata2462">
    <rdf:RDF>
      <cc:Work
         rdf:about="">
        <dc:format>image/svg+xml</dc:format>
        <dc:type
           rdf:resource="http://purl.org/dc/dcmitype/StillImage" />
      </cc:Work>
    </rdf:RDF>
  </metadata>
  <defs
     id="defs2460">
    <inkscape:perspective
       sodipodi:type="inkscape:persp3d"
       inkscape:vp_x="0 : 526.18109 : 1"
       inkscape:vp_y="0 : 1000 : 0"
       inkscape:vp_z="744.09448 : 526.18109 : 1"
       inkscape:persp3d-origin="372.04724 : 350.78739 : 1"
       id="perspective2464" />
  </defs>
  <sodipodi:namedview
     inkscape:window-height="666"
     inkscape:window-width="640"
     inkscape:pageshadow="2"
     inkscape:pageopacity="0.0"
     guidetolerance="10.0"
     gridtolerance="10.0"
     objecttolerance="10.0"
     borderopacity="1.0"
     bordercolor="#666666"
     pagecolor="#ffffff"
     id="base"
     showgrid="true"
     inkscape:zoom="0.72696589"
     inkscape:cx="395.99845"
     inkscape:cy="139.80452"
     inkscape:window-x="22"
     inkscape:window-y="29"
     inkscape:current-layer="svg2457">
    <inkscape:grid
       type="xygrid"
       id="grid2470" />
  </sodipodi:namedview>
  <path
     style="fill:#c60150;fill-opacity:1"
     d="M -1.164499,166.5002 C -0.87791452,165.53176 9.063612,128.51924 20.927781,84.250134 C 32.791951,39.981032 42.736153,2.9734635 43.026009,2.0110918 C 43.523734,0.35855195 49.587155,0.26174485 152.14448,0.2688739 C 223.2844,0.27382324 262.97582,0.63912457 267.23049,1.3280728 C 281.99574,3.7189842 293.49374,12.553467 296.84232,24.080301 C 299.08205,31.790164 298.8741,43.795754 296.31445,54.55543 C 289.61827,82.70333 270.85441,103.34531 243.7502,112.38099 C 236.79663,114.69908 236.42149,114.7144 179.0545,115.02472 C 147.31864,115.19639 121.37314,115.20393 121.39784,115.04146 C 121.42253,114.87899 123.56503,106.87212 126.15894,97.248398 L 130.87515,79.750733 L 161.83406,79.2508 C 191.10273,78.778153 193.01117,78.633382 196.78962,76.599133 C 210.06292,69.453005 217.29736,52.368352 211.25185,42.445524 C 207.4923,36.274796 206.90312,36.206925 159.60159,36.495747 L 116.90538,36.756462 L 99.295473,102.24774 L 81.685562,167.73901 L 40,168 C 0.6001099,168.24668 -1.6569916,168.16445 -1.164499,166.5002 z M 316.54208,166.17839 C 308.24097,163.54524 301.4303,157.36927 297.73103,149.1204 C 292.66054,137.81385 293.11079,134.58815 307.06496,82.2504 C 315.65556,50.029684 320.22037,34.660101 322.71081,29.571209 C 327.44936,19.88856 335.71032,11.581786 345.2975,6.8592057 C 359.20314,0.0093984737 355.8002,0.1848551 468.85702,0.48840465 L 570.47597,0.76125829 L 576.33585,3.1257432 C 583.88147,6.1704276 589.22176,11.520385 591.46667,18.283963 C 594.83119,28.420733 593.47929,36.648107 580.62729,84.250134 C 567.77232,131.86318 566.48932,135.75412 560.8654,144.18195 C 553.21528,155.64618 543.07435,162.76767 529.42499,166.26106 C 521.97169,168.16863 518.15987,168.23694 422.19047,168.18278 C 326.4131,168.12873 322.45377,168.05361 316.54208,166.17839 z M 478.51157,129.9691 C 485.88451,125.79014 487.14244,122.73847 497.48477,83.941155 C 506.69635,49.385619 507.74906,44.296467 506.40856,40.800723 C 504.74656,36.466541 502.43153,36.256529 456.31723,36.256529 L 412.50012,36.256529 L 407.96467,39.134855 C 405.47017,40.717934 402.50011,43.53006 401.36453,45.384023 C 398.23909,50.486663 379.81879,120.52457 380.63005,124.22086 C 380.98851,125.85408 382.63211,128.32736 384.28249,129.71705 L 387.28318,132.24374 L 430.91983,132.22729 C 474.26982,132.21095 474.58246,132.19612 478.51157,129.9691 z M 591.13959,153.99084 C 593.25834,146.15439 595.45062,138.05546 596.01132,135.99324 L 597.03077,132.24374 L 677.17495,132.22729 L 757.31915,132.21084 L 761.27424,129.9691 C 773.00781,123.31854 775.46801,105.92964 765.27817,101.66903 C 762.46607,100.49324 751.28775,100.248 700.50428,100.248 C 641.85994,100.248 638.84647,100.15881 632.77902,98.243655 C 616.95182,93.247915 607.94449,80.400477 607.94454,62.821479 C 607.94455,57.197578 609.44568,50.137389 615.29345,28.257594 L 622.64235,0.76125829 L 748.78985,0.50743211 C 849.57267,0.30464913 874.84754,0.50569235 874.49063,1.5072989 C 874.24494,2.196827 872.06165,10.297488 869.6389,19.50876 L 865.23389,36.256529 L 780.71862,36.256529 L 696.20334,36.256529 L 693.85699,45.609083 C 691.78826,53.855004 691.6685,55.343036 692.84479,58.184867 C 695.68385,65.043803 692.1259,64.698959 765.76657,65.252665 C 830.85766,65.74208 832.36598,65.797663 837.47264,67.895123 C 848.64312,72.483192 854.99044,80.606139 856.60532,92.380101 C 859.41496,112.86501 847.90722,141.32199 831.55273,154.3315 C 828.64243,156.64655 823.10116,160.05048 819.23879,161.89579 C 805.75898,168.33599 807.70651,168.23894 691.94876,168.23894 L 587.2873,168.23894 L 591.13959,153.99084 z M 946.34574,162.48971 C 947.16751,159.32763 954.99322,130.01067 963.7362,97.340906 C 972.47919,64.671143 979.63255,37.566584 979.63255,37.108535 C 979.63255,36.650496 958.12491,36.158922 931.8378,36.016161 L 884.04305,35.756595 L 888.7087,18.258927 L 893.37434,0.76125829 L 1029.5429,0.50771208 C 1158.9185,0.26681417 1165.6876,0.34162421 1165.2337,2.0075122 C 1164.9709,2.9718437 1162.8015,11.072384 1160.4126,20.008694 L 1156.0691,36.256529 L 1110.3825,36.256529 C 1067.7413,36.256529 1064.6602,36.373163 1064.1607,38.006296 C 1063.5432,40.025846 1031.0873,161.35262 1030.0581,165.48931 L 1029.3739,168.23894 L 987.11275,168.23894 L 944.8516,168.23894 L 946.34574,162.48971 z M 1162.9786,167.304 C 1152.9707,164.86588 1147.4916,157.96516 1147.4916,147.7989 C 1147.4916,143.76541 1152.5341,123.41414 1166.0222,73.009192 C 1176.214,34.922606 1184.7872,2.9734635 1185.0736,2.0110918 C 1185.5654,0.35843197 1191.6829,0.26132491 1295.2984,0.26132491 C 1359.0109,0.26132491 1407.0634,0.65244279 1409.9184,1.1942806 C 1423.5978,3.7903347 1433.4028,10.57721 1438.1438,20.731347 C 1441.6038,28.14177 1442.0537,38.618804 1439.3681,49.246058 C 1434.0286,70.375992 1421.8129,87.012766 1405.2967,95.648445 C 1391.3912,102.91915 1394.3035,102.63952 1328.5896,103.01325 C 1280.2564,103.28814 1269.3893,103.10933 1269.3893,102.03916 C 1269.3893,101.31824 1270.922,95.108527 1272.7952,88.239822 C 1274.6686,81.371117 1276.7028,73.862648 1277.3158,71.554345 L 1278.4305,67.357425 L 1309.6299,67.054945 C 1340.7953,66.752795 1340.8342,66.749736 1345.2812,64.252798 C 1351.5647,60.724688 1355.5322,54.704161 1356.1016,47.833346 C 1356.5222,42.758322 1356.3255,42.111049 1353.5057,39.289305 L 1350.4548,36.236261 L 1304.6954,36.496357 L 1258.9359,36.756462 L 1246.5683,82.995131 C 1239.7663,108.4264 1234.4606,129.91104 1234.7779,130.73877 C 1235.2849,132.06067 1244.6564,132.24374 1311.8223,132.24374 C 1368.8627,132.24374 1388.2895,132.53638 1388.2895,133.39564 C 1388.2895,134.02918 1386.7457,140.21586 1384.8589,147.1438 C 1382.9721,154.07175 1380.9314,161.65232 1380.3242,163.98951 L 1379.22,168.23894 L 1272.5981,168.1366 C 1213.956,168.0803 1164.6272,167.70563 1162.9786,167.304 z M 1447.0608,166.84414 C 1441.0312,165.21947 1436.0025,161.33979 1433.714,156.54695 C 1429.6728,148.08361 1429.7303,147.78124 1449.2044,75.251333 C 1459.1709,38.131279 1467.7694,6.0730505 1468.312,4.0108253 L 1469.2986,0.26132491 L 1586.7684,0.26132491 C 1680.3157,0.26132491 1704.1476,0.51585099 1703.7931,1.5111584 C 1703.5482,2.1985668 1701.3655,10.297488 1698.9427,19.50876 L 1694.5377,36.256529 L 1619.4706,36.256529 C 1556.5229,36.256529 1544.2168,36.481409 1543.2481,37.649453 C 1541.799,39.39678 1519.181,123.77358 1519.1802,127.43536 C 1519.1799,128.9152 1519.7417,130.48999 1520.4286,130.93489 C 1521.1155,131.37979 1554.7552,131.96878 1595.1833,132.24374 L 1668.6891,132.74367 L 1665.3457,145.24201 C 1663.5069,152.11609 1661.3282,160.10253 1660.5044,162.98964 L 1659.0064,168.23894 L 1555.3714,168.17146 C 1475.3405,168.11935 1450.6713,167.81703 1447.0608,166.84414 z M 1684.0658,165.00028 C 1684.5436,163.20702 1694.1972,127.09443 1705.5184,84.750067 C 1716.8395,42.405709 1726.5476,6.0730505 1727.0918,4.0108253 L 1728.0814,0.26132491 L 1769.508,0.26132491 C 1792.2927,0.26132491 1810.9347,0.54195751 1810.9347,0.88496181 C 1810.9347,1.6574689 1795.8893,58.241399 1795.2193,59.988517 C 1794.8332,60.995622 1803.1546,61.253198 1836.0772,61.253198 L 1877.4202,61.253198 L 1885.4945,31.007228 L 1893.5687,0.76125829 L 1935.2038,0.50030306 L 1976.8391,0.23934783 L 1976.1513,2.99997 C 1975.7729,4.5183077 1965.7033,42.205736 1953.7745,86.749801 L 1932.0857,167.73901 L 1890.4234,168 C 1851.0505,168.24665 1848.7891,168.16424 1849.2677,166.5002 C 1849.5463,165.53176 1853.6535,150.11636 1858.3949,132.24374 C 1863.1363,114.37112 1867.2436,98.95565 1867.5222,97.987139 C 1868.0009,96.323105 1865.7583,96.240596 1826.7599,96.487343 L 1785.4911,96.748465 L 1775.978,132.24374 L 1766.465,167.73901 L 1724.831,167.99988 L 1683.1972,168.26076 L 1684.0658,165.00028 z"
     id="path2468" />
</svg>
