<?xml version="1.0" encoding="iso-8859-1"?>
<!-- Generator: Adobe Illustrator 19.0.0, SVG Export Plug-In . SVG Version: 6.00 Build 0)  -->
<svg version="1.1" id="Layer_1" xmlns="http://www.w3.org/2000/svg" xmlns:xlink="http://www.w3.org/1999/xlink" x="0px" y="0px"
	 viewBox="0 0 512 512" style="enable-background:new 0 0 512 512;" xml:space="preserve">
<rect x="10" y="160.199" style="fill:#FFDA7E;" width="492" height="301.61"/>
<rect x="10" y="50.199" style="fill:#1C849E;" width="492" height="110"/>
<rect x="330.41" y="83.779" style="fill:#A0DBE8;" width="128.56" height="42.845"/>
<path d="M458.971,136.619H330.406c-5.523,0-10-4.477-10-10V83.774c0-5.523,4.477-10,10-10H458.97c5.522,0,10,4.477,10,10v42.845
	C468.971,132.143,464.493,136.619,458.971,136.619z M340.406,116.619H448.97V93.774H340.406V116.619z"/>
<path d="M92.02,115.198c-0.649,0-1.31-0.07-1.95-0.2s-1.27-0.32-1.88-0.57c-0.6-0.25-1.18-0.56-1.72-0.92
	c-0.55-0.36-1.06-0.78-1.52-1.24s-0.881-0.97-1.25-1.52c-0.351-0.54-0.66-1.12-0.91-1.73c-0.25-0.6-0.45-1.23-0.57-1.87
	c-0.13-0.64-0.2-1.3-0.2-1.95c0-0.65,0.07-1.31,0.2-1.96c0.12-0.63,0.32-1.26,0.57-1.87c0.25-0.6,0.56-1.18,0.91-1.72
	c0.369-0.55,0.79-1.06,1.25-1.52s0.97-0.88,1.52-1.25c0.54-0.36,1.12-0.67,1.72-0.92c0.61-0.25,1.24-0.44,1.88-0.57
	c1.29-0.26,2.61-0.26,3.9,0c0.64,0.13,1.27,0.32,1.87,0.57c0.61,0.25,1.19,0.56,1.729,0.92c0.551,0.37,1.061,0.79,1.521,1.25
	c0.46,0.46,0.88,0.97,1.24,1.52c0.359,0.54,0.67,1.12,0.92,1.72c0.25,0.61,0.439,1.24,0.569,1.87c0.131,0.65,0.2,1.31,0.2,1.96
	s-0.069,1.31-0.2,1.95c-0.13,0.64-0.319,1.27-0.569,1.87c-0.25,0.61-0.561,1.19-0.92,1.73c-0.36,0.55-0.78,1.06-1.24,1.52
	s-0.97,0.88-1.521,1.24c-0.539,0.36-1.119,0.67-1.729,0.92c-0.6,0.25-1.23,0.44-1.87,0.57
	C93.33,115.129,92.67,115.198,92.02,115.198z"/>
<path d="M271.668,115.197H133.525c-5.523,0-10-4.477-10-10s4.478-10,10-10h138.143c5.522,0,10,4.477,10,10
	C281.668,110.719,277.19,115.197,271.668,115.197z"/>
<path style="fill:#FFB082;" d="M293.235,335.035l-11.382-4.365v-22.847h-0.505c14.73-8.512,23.862-24.354,25.438-42.054l0.29-5.102
	c0.238,0.069,0.473,0.183,0.737,0.209l0.901,0.075c2.011,0.18,3.775-1.288,3.957-3.272l2.21-25.027
	c0.185-1.977-1.298-3.722-3.309-3.892l-0.905-0.088c-0.667-0.049-1.278,0.127-1.84,0.382l0.489-8.743
	c0-27.026-23.868-48.928-53.315-48.928c-29.444,0-53.312,21.902-53.312,48.928l0.492,8.756c-0.568-0.268-1.192-0.444-1.863-0.395
	l-0.902,0.088c-2.011,0.17-3.491,1.915-3.312,3.892l2.216,25.027c0.175,1.984,1.942,3.452,3.944,3.272l0.912-0.075
	c0.274-0.026,0.505-0.14,0.753-0.219l0.291,5.112c1.588,17.699,10.71,33.542,25.434,42.054h-0.502v22.847l-11.384,4.366L256,404.494
	L293.235,335.035z"/>
<path style="fill:#1C849E;" d="M382.403,461.801l-8.096-72.756c-1.645-12.753-9.984-23.701-21.933-28.795l-59.139-25.215
	L256,404.494l-37.235-69.458l-59.133,25.214c-11.947,5.094-20.285,16.04-21.932,28.791l-8.104,72.76H256H382.403z"/>
<path d="M337.21,417.499c-0.65,0-1.311-0.07-1.95-0.2c-0.64-0.13-1.27-0.32-1.87-0.57c-0.609-0.25-1.189-0.56-1.729-0.92
	c-0.551-0.36-1.061-0.78-1.521-1.24s-0.88-0.98-1.24-1.52c-0.359-0.55-0.67-1.13-0.92-1.73s-0.449-1.23-0.569-1.87
	c-0.13-0.65-0.2-1.3-0.2-1.96c0-0.65,0.07-1.3,0.2-1.95c0.12-0.64,0.319-1.27,0.569-1.87s0.561-1.18,0.92-1.72
	c0.36-0.55,0.78-1.06,1.24-1.53c0.46-0.46,0.97-0.87,1.521-1.24c0.54-0.36,1.12-0.67,1.729-0.92c0.601-0.25,1.23-0.44,1.87-0.57
	c1.29-0.26,2.62-0.26,3.91,0c0.63,0.13,1.26,0.32,1.87,0.57c0.6,0.25,1.18,0.56,1.72,0.92c0.55,0.37,1.06,0.78,1.521,1.24
	c0.46,0.47,0.88,0.98,1.25,1.53c0.359,0.54,0.67,1.12,0.92,1.72s0.439,1.23,0.569,1.87c0.13,0.65,0.19,1.3,0.19,1.95
	c0,0.66-0.061,1.31-0.19,1.96c-0.13,0.64-0.319,1.27-0.569,1.87s-0.561,1.18-0.92,1.73c-0.37,0.54-0.79,1.06-1.25,1.52
	c-0.461,0.46-0.971,0.88-1.521,1.24c-0.54,0.36-1.12,0.67-1.72,0.92c-0.61,0.25-1.24,0.44-1.87,0.57
	C338.52,417.428,337.859,417.499,337.21,417.499z"/>
<path d="M502,40.197H10c-5.523,0-10,4.477-10,10v110v301.605c0,5.523,4.477,10,10,10h119.597h252.807H502c5.522,0,10-4.477,10-10
	V160.197v-110C512,44.674,507.522,40.197,502,40.197z M20,60.197h472v90H20V60.197z M303.174,237.302
	c0.385,0.264,0.784,0.498,1.195,0.703l-1.188,13.451c-0.661,0.28-1.297,0.632-1.894,1.056c-2.478,1.759-4.022,4.55-4.195,7.585
	l-0.282,4.936c-1.356,14.755-8.999,27.506-20.466,34.131c-3.919,2.264-5.828,6.878-4.656,11.249c0.05,0.186,0.105,0.37,0.165,0.551
	v19.707c0,4.141,2.553,7.854,6.419,9.337l0.789,0.303L256,383.329l-23.061-43.019l0.791-0.303c3.866-1.483,6.419-5.196,6.419-9.337
	v-19.718c0.059-0.177,0.111-0.356,0.16-0.538c1.173-4.371-0.736-8.983-4.653-11.248c-11.453-6.621-19.095-19.373-20.464-34.135
	l-0.282-4.942c-0.175-3.08-1.762-5.907-4.301-7.66c-0.571-0.395-1.176-0.725-1.805-0.989l-1.188-13.412
	c0.396-0.196,0.782-0.42,1.155-0.671c2.921-1.971,4.589-5.333,4.392-8.851l-0.476-8.458c0.158-21.344,19.526-38.665,43.311-38.665
	c23.786,0,43.156,17.322,43.315,38.666l-0.473,8.447C298.647,231.986,300.289,235.326,303.174,237.302z M214.273,347.823
	l26.628,49.671h-94.08l0.807-7.25c1.212-9.158,7.308-17.121,15.926-20.795L214.273,347.823z M20,170.197h202.74
	c-18.02,10.399-30.053,28.969-30.053,50.113c0,0.187,0.005,0.375,0.016,0.561l0.025,0.448c-0.903,0.653-1.731,1.422-2.466,2.298
	c-2.339,2.787-3.446,6.315-3.121,9.915l2.216,25.028c0.32,3.618,2.033,6.895,4.823,9.227c0.416,0.348,0.849,0.669,1.296,0.962
	c2.163,18.072,11.159,34.042,24.673,44.109v10.936l-4.965,1.904c-0.053,0.02-0.103,0.048-0.156,0.07
	c-0.061,0.025-0.124,0.043-0.185,0.069l-59.134,25.214c-15.135,6.453-25.836,20.519-27.928,36.708
	c-0.007,0.058-0.014,0.116-0.021,0.174l-7.113,63.867H20V170.197z M140.773,451.801l3.821-34.307h151.113c5.522,0,10-4.477,10-10
	s-4.478-10-10-10H271.1l26.629-49.673l50.725,21.627c8.62,3.675,14.717,11.64,15.927,20.798l6.85,61.555H140.773z M492,451.801
	H391.352l-7.107-63.862c-0.006-0.058-0.014-0.116-0.02-0.174c-2.09-16.192-12.791-30.26-27.929-36.714l-59.139-25.214
	c-0.061-0.026-0.124-0.044-0.185-0.069c-0.053-0.021-0.102-0.049-0.156-0.069l-4.963-1.903v-10.937
	c13.533-10.078,22.533-26.059,24.678-44.141c3.35-2.205,5.707-5.859,6.1-10.161l2.206-24.977c0.338-3.622-0.763-7.154-3.101-9.948
	c-0.733-0.878-1.561-1.648-2.463-2.303l0.025-0.462c0.011-0.186,0.016-0.372,0.016-0.559c0-21.144-12.033-39.714-30.054-50.113H492
	V451.801z"/>
<g>
</g>
<g>
</g>
<g>
</g>
<g>
</g>
<g>
</g>
<g>
</g>
<g>
</g>
<g>
</g>
<g>
</g>
<g>
</g>
<g>
</g>
<g>
</g>
<g>
</g>
<g>
</g>
<g>
</g>
</svg>
